<svg xmlns="http://www.w3.org/2000/svg" xmlns:xlink="http://www.w3.org/1999/xlink" width="500" zoomAndPan="magnify" viewBox="0 0 375 374.999991" height="500" preserveAspectRatio="xMidYMid meet" version="1.0"><path fill="#b64d2a" d="M 126.738281 288.136719 C 119.328125 287.410156 112.207031 290.753906 106.902344 300.785156 C 100.941406 312.125 109.808594 328.191406 116.128906 336.695312 C 118.382812 336.839844 120.5625 336.984375 122.816406 336.839844 C 124.558594 336.765625 126.375 336.402344 128.191406 336.402344 C 129.136719 339.746094 130.15625 342.800781 131.101562 345.417969 C 128.410156 348.617188 126.886719 352.613281 127.320312 356.757812 C 128.628906 356.394531 129.863281 356.101562 131.027344 355.882812 C 131.464844 352.976562 132.769531 350.140625 134.734375 347.816406 C 133.425781 344.179688 132.042969 339.820312 130.738281 334.949219 C 127.539062 322.449219 125.140625 306.164062 126.738281 288.136719 Z M 126.738281 288.136719 " fill-opacity="1" fill-rule="nonzero"/><path fill="#b64d2a" d="M 263.570312 293.082031 C 272.65625 279.269531 279.414062 257.390625 266.988281 236.09375 C 266.261719 237.402344 266.042969 241.253906 265.824219 242.632812 C 264.371094 239.21875 261.609375 234.347656 258.628906 231.875 C 262.554688 242.125 262.773438 255.71875 258.414062 265.96875 C 256.230469 271.128906 252.527344 275.5625 247.875 279.125 C 247.148438 279.632812 246.347656 280.070312 245.621094 280.503906 C 246.058594 283.195312 246.347656 285.882812 246.566406 288.574219 C 248.019531 305.730469 245.914062 321.71875 243.078125 334.222656 C 241.988281 338.949219 240.828125 343.238281 239.738281 346.871094 C 242.136719 349.414062 243.734375 352.394531 244.242188 355.667969 C 244.460938 355.738281 244.75 355.8125 244.96875 355.8125 C 245.769531 355.957031 246.566406 356.175781 247.441406 356.394531 C 247.511719 352.175781 245.695312 348.179688 242.644531 344.980469 C 243.371094 342.507812 244.167969 339.746094 244.894531 336.839844 C 247.585938 336.039062 250.492188 336.621094 253.398438 336.839844 C 255.652344 336.914062 257.832031 336.839844 260.082031 336.695312 C 266.40625 328.191406 275.34375 312.125 269.3125 300.785156 C 267.496094 297.515625 265.535156 295.042969 263.570312 293.082031 Z M 263.570312 293.082031 " fill-opacity="1" fill-rule="nonzero"/><path fill="#b64d2a" d="M 196.425781 252.085938 C 175.570312 253.972656 157.695312 248.378906 142.800781 237.835938 C 141.925781 239.363281 141.054688 240.890625 140.257812 242.34375 C 141.417969 243.363281 142.507812 244.304688 143.742188 245.25 C 146.867188 247.722656 150.066406 249.902344 153.480469 251.867188 C 166.050781 259.0625 180.367188 262.480469 196.5 260.808594 C 204.492188 260.007812 212.632812 256.953125 220.554688 252.15625 C 224.476562 249.757812 228.402344 246.921875 232.179688 243.652344 C 232.46875 243.433594 232.6875 243.214844 232.90625 243 C 232.105469 241.542969 231.089844 240.019531 230.144531 238.5625 C 219.316406 246.195312 207.761719 251.066406 196.425781 252.085938 Z M 196.425781 252.085938 " fill-opacity="1" fill-rule="nonzero"/><path fill="#ffffff" d="M 173.320312 190.953125 C 168.234375 196.695312 174.628906 198.875 181.601562 194.441406 C 192.792969 187.390625 180.875 182.449219 173.320312 190.953125 Z M 173.320312 190.953125 " fill-opacity="1" fill-rule="nonzero"/><path fill="#ffffff" d="M 237.847656 138.398438 C 224.621094 138.398438 213.867188 149.011719 213.867188 162.023438 C 213.867188 175.105469 224.621094 185.644531 237.847656 185.644531 C 251.074219 185.644531 261.828125 175.035156 261.828125 162.023438 C 261.828125 149.011719 251.074219 138.398438 237.847656 138.398438 Z M 237.703125 181.140625 C 227.019531 181.140625 218.371094 172.5625 218.371094 162.023438 C 218.371094 151.484375 227.019531 142.90625 237.703125 142.90625 C 248.382812 142.90625 257.03125 151.484375 257.03125 162.023438 C 257.03125 172.636719 248.382812 181.140625 237.703125 181.140625 Z M 237.703125 181.140625 " fill-opacity="1" fill-rule="nonzero"/><path fill="#ffffff" d="M 136.984375 138.398438 C 123.761719 138.398438 113.007812 149.011719 113.007812 162.023438 C 113.007812 175.105469 123.761719 185.644531 136.984375 185.644531 C 150.210938 185.644531 160.964844 175.035156 160.964844 162.023438 C 160.964844 149.011719 150.210938 138.398438 136.984375 138.398438 Z M 136.984375 181.140625 C 126.304688 181.140625 117.65625 172.5625 117.65625 162.023438 C 117.65625 151.484375 126.304688 142.90625 136.984375 142.90625 C 147.667969 142.90625 156.316406 151.484375 156.316406 162.023438 C 156.386719 172.636719 147.667969 181.140625 136.984375 181.140625 Z M 136.984375 181.140625 " fill-opacity="1" fill-rule="nonzero"/><path fill="#ffffff" d="M 223.894531 154.246094 C 220.261719 161.878906 228.039062 163.914062 234.140625 157.734375 C 244.023438 147.777344 229.273438 142.976562 223.894531 154.246094 Z M 223.894531 154.246094 " fill-opacity="1" fill-rule="nonzero"/><path fill="#ffffff" d="M 123.253906 154.246094 C 119.617188 161.878906 127.394531 163.914062 133.496094 157.734375 C 143.378906 147.777344 128.558594 142.976562 123.253906 154.246094 Z M 123.253906 154.246094 " fill-opacity="1" fill-rule="nonzero"/><path fill="#dc7546" d="M 245.550781 280.578125 C 243.734375 268.222656 239.808594 255.429688 232.90625 243.070312 C 232.6875 243.289062 232.46875 243.507812 232.179688 243.726562 C 228.402344 246.921875 224.476562 249.832031 220.554688 252.230469 C 212.632812 257.027344 204.492188 260.007812 196.5 260.878906 C 180.367188 262.550781 166.054688 259.136719 153.480469 251.9375 C 150.140625 250.050781 146.867188 247.796875 143.742188 245.324219 C 142.582031 244.378906 141.417969 243.433594 140.257812 242.417969 C 132.042969 258.191406 128.121094 273.746094 126.8125 288.210938 C 125.140625 306.238281 127.613281 322.519531 130.808594 335.023438 C 132.042969 339.964844 133.496094 344.253906 134.804688 347.886719 C 138.003906 344.109375 142.871094 341.347656 148.757812 340.472656 C 151.300781 340.109375 153.84375 340.183594 156.242188 340.546875 C 164.308594 341.855469 170.777344 347.160156 172.011719 354.285156 C 173.027344 354.359375 173.972656 354.359375 175.0625 354.429688 C 175.0625 353.632812 174.992188 352.832031 174.84375 352.03125 C 173.902344 346.214844 169.394531 341.566406 163.4375 339.3125 C 155.808594 313.433594 157.261719 291.699219 159.367188 279.414062 C 165.035156 278.617188 170.121094 276.507812 176.660156 279.777344 C 184.074219 283.484375 189.453125 284.648438 197.589844 281.597656 C 204.710938 278.90625 209 277.671875 215.539062 278.398438 C 217.71875 290.535156 219.460938 312.925781 211.542969 339.675781 C 206.019531 342 201.878906 346.433594 201.003906 352.03125 C 200.859375 353.050781 200.714844 353.921875 200.714844 354.867188 C 201.660156 354.867188 202.53125 354.867188 203.402344 354.867188 C 203.402344 354.722656 203.402344 354.574219 203.402344 354.429688 C 204.785156 346.144531 213.066406 340.328125 222.804688 340.257812 C 224.039062 340.257812 225.347656 340.328125 226.65625 340.472656 C 232.035156 341.273438 236.539062 343.671875 239.738281 346.945312 C 240.828125 343.308594 242.0625 339.019531 243.078125 334.296875 C 245.914062 321.71875 248.019531 305.730469 246.566406 288.648438 C 246.277344 285.957031 245.914062 283.269531 245.550781 280.578125 Z M 245.550781 280.578125 " fill-opacity="1" fill-rule="nonzero"/><path fill="#dc7546" d="M 332.605469 20.277344 C 317.636719 4.867188 274.179688 36.414062 261.683594 43.683594 C 246.710938 52.480469 226.511719 59.96875 217.863281 74.941406 C 206.890625 72.398438 195.335938 71.671875 184 72.976562 C 174.265625 74.070312 163.21875 74.503906 152.464844 75.886719 C 144.398438 61.277344 125.648438 52.550781 111.84375 43.03125 C 99.851562 34.816406 58.871094 0.0703125 42.808594 14.316406 C 34.453125 21.734375 44.335938 38.523438 44.917969 47.390625 C 45.933594 62.367188 42.59375 77.484375 47.824219 92.023438 C 52.546875 105.105469 59.960938 126.1875 73.546875 133.746094 C 79.941406 137.308594 86.699219 137.089844 93.457031 135.199219 C 92.367188 151.484375 96.074219 168.929688 102.832031 184.703125 C 112.277344 206.871094 125.578125 225.625 142.800781 237.835938 C 157.769531 248.378906 175.570312 253.972656 196.425781 252.085938 C 207.761719 251.066406 219.316406 246.125 230.070312 238.636719 C 249.109375 225.335938 265.824219 203.671875 274.691406 180.414062 C 279.921875 166.675781 282.390625 152.425781 281.15625 138.90625 C 285.152344 139.34375 289.148438 138.835938 293.148438 137.015625 C 307.246094 130.546875 316.183594 110.050781 321.851562 97.402344 C 328.171875 83.300781 325.917969 67.960938 328.027344 53.132812 C 329.335938 44.265625 340.453125 28.347656 332.605469 20.277344 Z M 106.394531 112.667969 C 100.578125 122.117188 95.128906 128.148438 83.792969 123.351562 C 63.300781 114.773438 60.25 75.742188 60.25 57.058594 C 60.25 48.773438 55.234375 41.214844 55.597656 33.871094 C 56.90625 7.050781 111.042969 55.96875 116.058594 59.167969 C 120.925781 62.292969 127.464844 63.457031 131.972656 67.019531 C 136.257812 70.363281 139.238281 75.8125 143.453125 79.519531 C 132.988281 80.320312 123.179688 71.523438 113.660156 71.089844 C 115.914062 74.867188 118.890625 79.375 121.945312 82.9375 C 122.453125 83.589844 123.035156 84.171875 123.542969 84.753906 C 118.3125 85.554688 113.515625 83.300781 108.210938 83.445312 C 110.390625 89.625 116.785156 93.476562 120.34375 98.636719 C 114.675781 102.34375 109.953125 106.851562 106.394531 112.667969 Z M 113.007812 162.09375 C 113.007812 149.011719 123.761719 138.472656 136.984375 138.472656 C 150.210938 138.472656 160.964844 149.082031 160.964844 162.09375 C 160.964844 175.179688 150.210938 185.71875 136.984375 185.71875 C 123.761719 185.71875 113.007812 175.105469 113.007812 162.09375 Z M 223.605469 232.3125 C 220.554688 235.730469 215.976562 237.765625 211.542969 238.855469 C 198.753906 242.054688 185.746094 241.691406 172.664062 239.507812 C 164.671875 238.199219 156.023438 237.402344 149.628906 231.730469 C 142.289062 225.1875 139.820312 213.921875 141.054688 204.472656 C 142.074219 196.621094 146.289062 189.207031 152.320312 184.191406 C 158.058594 179.394531 165.398438 177.433594 171.355469 172.851562 C 178.117188 167.691406 175.789062 162.09375 176.589844 154.535156 C 176.953125 151.191406 177.171875 148.066406 179.714844 145.523438 C 184.148438 141.089844 182.839844 146.46875 187.125 146.832031 C 191.269531 147.195312 190.6875 140.507812 195.847656 142.105469 C 199.625 143.269531 199.625 148.140625 199.769531 151.265625 C 200.132812 158.316406 198.390625 166.527344 202.820312 171.761719 C 208.125 178.015625 216.410156 180.414062 222.007812 186.589844 C 227.820312 193.0625 230.289062 201.054688 230.726562 209.5625 C 231.089844 217.628906 228.980469 226.207031 223.605469 232.3125 Z M 237.847656 185.71875 C 224.621094 185.71875 213.867188 175.105469 213.867188 162.09375 C 213.867188 149.011719 224.621094 138.472656 237.847656 138.472656 C 251.074219 138.472656 261.828125 149.082031 261.828125 162.09375 C 261.828125 175.105469 251.074219 185.71875 237.847656 185.71875 Z M 314.21875 65.054688 C 312.914062 83.664062 307.027344 122.335938 285.878906 129.386719 C 274.253906 133.238281 269.238281 126.839844 264.152344 117.027344 C 261.027344 110.996094 256.667969 106.125 251.21875 102.054688 C 255.140625 97.183594 261.828125 93.839844 264.445312 87.808594 C 259.210938 87.226562 254.269531 89.117188 249.109375 87.878906 C 249.691406 87.371094 250.273438 86.789062 250.855469 86.207031 C 254.199219 82.863281 257.46875 78.648438 260.011719 75.011719 C 250.492188 74.722656 240.101562 82.792969 229.707031 81.191406 C 234.140625 77.777344 237.558594 72.613281 242.0625 69.5625 C 246.859375 66.363281 253.398438 65.636719 258.484375 62.945312 C 263.71875 60.113281 321.269531 15.480469 320.613281 42.304688 C 320.398438 49.574219 314.800781 56.769531 314.21875 65.054688 Z M 314.21875 65.054688 " fill-opacity="1" fill-rule="nonzero"/><path fill="#fed7b5" d="M 128.191406 336.402344 C 126.449219 336.402344 124.632812 336.695312 122.816406 336.839844 C 120.5625 336.914062 118.382812 336.839844 116.128906 336.695312 C 116.203125 336.765625 116.203125 336.839844 116.347656 336.984375 C 112.789062 338.585938 108.644531 337.058594 105.738281 340.835938 C 103.195312 344.109375 102.90625 349.851562 105.667969 353.265625 C 111.335938 360.246094 120.199219 358.574219 127.320312 356.828125 C 126.886719 352.6875 128.410156 348.6875 131.101562 345.488281 C 130.15625 342.800781 129.136719 339.820312 128.191406 336.402344 Z M 128.191406 336.402344 " fill-opacity="1" fill-rule="nonzero"/><path fill="#fed7b5" d="M 259.71875 336.984375 C 259.792969 336.914062 259.867188 336.839844 259.9375 336.695312 C 257.6875 336.839844 255.503906 336.984375 253.253906 336.839844 C 250.417969 336.621094 247.511719 336.039062 244.75 336.839844 C 244.023438 339.820312 243.226562 342.582031 242.5 344.980469 C 245.550781 348.179688 247.367188 352.175781 247.292969 356.394531 C 254.707031 358.136719 264.371094 360.609375 270.402344 353.195312 C 273.164062 349.851562 272.871094 344.035156 270.328125 340.765625 C 267.421875 337.058594 263.207031 338.585938 259.71875 336.984375 Z M 259.71875 336.984375 " fill-opacity="1" fill-rule="nonzero"/><path fill="#fed7b5" d="M 211.398438 339.675781 C 219.316406 312.925781 217.574219 290.535156 215.394531 278.398438 C 208.851562 277.671875 204.566406 278.90625 197.445312 281.597656 C 189.304688 284.722656 183.929688 283.484375 176.515625 279.777344 C 169.976562 276.507812 164.890625 278.617188 159.222656 279.414062 C 157.1875 291.699219 155.734375 313.433594 163.292969 339.3125 C 169.25 341.566406 173.753906 346.144531 174.699219 352.03125 C 174.84375 352.832031 174.917969 353.632812 174.917969 354.429688 C 182.695312 354.792969 192.285156 354.9375 200.570312 354.867188 C 200.570312 353.996094 200.640625 353.050781 200.859375 352.03125 C 201.730469 346.433594 205.875 342 211.398438 339.675781 Z M 211.398438 339.675781 " fill-opacity="1" fill-rule="nonzero"/><path fill="#fed7b5" d="M 239.589844 346.945312 C 236.394531 343.671875 231.890625 341.199219 226.511719 340.472656 C 225.203125 340.257812 223.894531 340.257812 222.660156 340.257812 C 212.921875 340.402344 204.640625 346.214844 203.257812 354.429688 C 203.257812 354.574219 203.257812 354.722656 203.257812 354.867188 C 201.660156 366.0625 209.796875 373.765625 220.988281 374.347656 C 232.398438 374.929688 242.714844 369.695312 244.242188 360.390625 C 244.53125 358.792969 244.386719 357.265625 244.167969 355.8125 C 243.589844 352.46875 241.988281 349.414062 239.589844 346.945312 Z M 239.589844 346.945312 " fill-opacity="1" fill-rule="nonzero"/><path fill="#fed7b5" d="M 171.867188 354.285156 C 170.628906 347.089844 164.164062 341.855469 156.097656 340.546875 C 153.699219 340.183594 151.230469 340.039062 148.613281 340.472656 C 142.800781 341.347656 137.859375 344.109375 134.660156 347.886719 C 132.625 350.289062 131.390625 353.050781 130.953125 355.957031 C 130.738281 357.410156 130.664062 358.863281 130.882812 360.316406 C 132.40625 369.695312 139.746094 374.929688 154.136719 374.273438 C 166.488281 373.691406 173.390625 363.734375 171.867188 354.359375 C 171.9375 354.359375 171.867188 354.359375 171.867188 354.285156 Z M 171.867188 354.285156 " fill-opacity="1" fill-rule="nonzero"/><path fill="#fed7b5" d="M 149.628906 231.804688 C 156.023438 237.472656 164.671875 238.273438 172.664062 239.582031 C 185.746094 241.761719 198.753906 242.125 211.542969 238.925781 C 215.976562 237.835938 220.625 235.800781 223.605469 232.386719 C 228.980469 226.28125 231.089844 217.628906 230.652344 209.707031 C 230.21875 201.128906 227.746094 193.132812 221.933594 186.738281 C 216.410156 180.558594 208.054688 178.160156 202.75 171.90625 C 198.316406 166.675781 200.0625 158.460938 199.699219 151.410156 C 199.550781 148.285156 199.550781 143.414062 195.773438 142.25 C 190.613281 140.652344 191.195312 147.339844 187.054688 146.976562 C 182.765625 146.613281 184.074219 141.234375 179.640625 145.667969 C 177.097656 148.285156 176.878906 151.335938 176.515625 154.679688 C 175.71875 162.242188 178.042969 167.835938 171.285156 173 C 165.324219 177.578125 157.988281 179.539062 152.246094 184.339844 C 146.289062 189.355469 142 196.769531 140.984375 204.617188 C 139.820312 214.066406 142.289062 225.335938 149.628906 231.804688 Z M 156.679688 220.902344 C 159.875 215.667969 164.382812 221.773438 161.039062 222.425781 C 157.1875 223.152344 162.636719 227.804688 164.527344 227.878906 C 170.703125 228.167969 177.898438 228.023438 183.785156 226.0625 C 184.511719 225.84375 185.238281 225.699219 185.964844 225.625 C 186.253906 223.007812 187.34375 218.867188 186.542969 214.792969 C 186.328125 213.703125 185.890625 212.25 185.453125 210.796875 C 175.71875 209.925781 168.085938 203.964844 168.160156 196.769531 C 168.234375 189.136719 176.878906 183.101562 187.488281 183.246094 C 198.097656 183.464844 206.671875 189.789062 206.601562 197.496094 C 206.527344 204.472656 199.335938 210.070312 190.03125 210.871094 C 190.90625 215.957031 190.832031 222.28125 189.886719 225.769531 C 193.449219 226.351562 197.152344 227.804688 200.789062 228.460938 C 204.855469 229.113281 209.507812 230.203125 213.503906 228.386719 C 218.226562 226.28125 212.777344 221.265625 215.828125 219.519531 C 219.316406 217.484375 219.609375 226.28125 218.808594 228.167969 C 217.066406 232.3125 211.976562 233.183594 208.199219 233.183594 C 202.023438 233.183594 195.046875 231.730469 189.160156 229.550781 C 185.964844 228.386719 182.621094 230.496094 179.207031 231.003906 C 175.789062 231.511719 172.300781 231.660156 168.8125 231.585938 C 162.78125 232.023438 152.535156 227.734375 156.679688 220.902344 Z M 156.679688 220.902344 " fill-opacity="1" fill-rule="nonzero"/><path fill="#fed7b5" d="M 258.414062 62.875 C 253.324219 65.636719 246.785156 66.289062 241.988281 69.488281 C 237.484375 72.542969 234.070312 77.703125 229.636719 81.121094 C 240.027344 82.71875 250.417969 74.648438 259.9375 74.941406 C 257.46875 78.574219 254.125 82.863281 250.78125 86.136719 C 250.199219 86.714844 249.621094 87.296875 249.039062 87.808594 C 254.199219 88.96875 259.140625 87.078125 264.371094 87.734375 C 261.753906 93.765625 255.070312 97.039062 251.144531 101.980469 C 256.59375 106.050781 260.957031 110.921875 264.082031 116.957031 C 269.167969 126.769531 274.179688 133.238281 285.808594 129.3125 C 306.953125 122.335938 312.839844 83.664062 314.148438 64.984375 C 314.730469 56.695312 320.324219 49.574219 320.46875 42.230469 C 321.195312 15.410156 263.644531 60.039062 258.414062 62.875 Z M 258.414062 62.875 " fill-opacity="1" fill-rule="nonzero"/><path fill="#fed7b5" d="M 120.417969 98.710938 C 116.855469 93.550781 110.390625 89.695312 108.28125 83.519531 C 113.515625 83.300781 118.382812 85.625 123.617188 84.828125 C 123.105469 84.246094 122.523438 83.664062 122.015625 83.007812 C 118.964844 79.449219 115.984375 74.941406 113.734375 71.160156 C 123.253906 71.597656 133.0625 80.394531 143.527344 79.59375 C 139.3125 75.886719 136.332031 70.433594 132.042969 67.089844 C 127.464844 63.527344 121 62.367188 116.128906 59.238281 C 111.042969 55.96875 56.90625 7.050781 55.597656 33.871094 C 55.234375 41.214844 60.25 48.773438 60.25 57.058594 C 60.25 75.742188 63.300781 114.703125 83.867188 123.351562 C 95.203125 128.078125 100.652344 122.042969 106.464844 112.667969 C 109.953125 106.851562 114.675781 102.34375 120.417969 98.710938 Z M 120.417969 98.710938 " fill-opacity="1" fill-rule="nonzero"/><path fill="#010101" d="M 215.828125 219.445312 C 212.851562 221.191406 218.226562 226.207031 213.503906 228.316406 C 209.507812 230.058594 204.855469 229.042969 200.789062 228.386719 C 197.152344 227.804688 193.449219 226.28125 189.886719 225.699219 C 190.832031 222.210938 190.90625 215.886719 190.03125 210.796875 C 199.335938 209.996094 206.527344 204.398438 206.601562 197.421875 C 206.671875 189.789062 198.097656 183.394531 187.488281 183.175781 C 176.878906 182.957031 168.234375 188.988281 168.160156 196.695312 C 168.085938 203.890625 175.71875 209.925781 185.453125 210.722656 C 185.890625 212.179688 186.328125 213.558594 186.542969 214.722656 C 187.269531 218.71875 186.253906 222.863281 185.964844 225.550781 C 185.238281 225.625 184.511719 225.769531 183.785156 225.988281 C 177.898438 227.953125 170.703125 228.097656 164.527344 227.804688 C 162.636719 227.734375 157.261719 223.082031 161.039062 222.355469 C 164.382812 221.699219 159.875 215.59375 156.679688 220.828125 C 152.535156 227.660156 162.78125 231.949219 168.8125 231.511719 C 172.300781 231.585938 175.71875 231.367188 179.207031 230.933594 C 182.621094 230.421875 186.035156 228.242188 189.160156 229.476562 C 194.972656 231.660156 202.023438 233.113281 208.199219 233.113281 C 211.976562 233.113281 216.992188 232.167969 218.808594 228.097656 C 219.535156 226.207031 219.246094 217.484375 215.828125 219.445312 Z M 181.675781 194.441406 C 174.699219 198.875 168.304688 196.621094 173.390625 190.953125 C 180.875 182.449219 192.792969 187.390625 181.675781 194.441406 Z M 181.675781 194.441406 " fill-opacity="1" fill-rule="nonzero"/><path fill="#010101" d="M 136.984375 142.976562 C 126.304688 142.976562 117.65625 151.554688 117.65625 162.09375 C 117.65625 172.636719 126.304688 181.210938 136.984375 181.210938 C 147.667969 181.210938 156.316406 172.636719 156.316406 162.09375 C 156.386719 151.554688 147.667969 142.976562 136.984375 142.976562 Z M 133.496094 157.734375 C 127.320312 163.984375 119.617188 161.878906 123.253906 154.246094 C 128.558594 142.976562 143.378906 147.777344 133.496094 157.734375 Z M 133.496094 157.734375 " fill-opacity="1" fill-rule="nonzero"/><path fill="#010101" d="M 237.703125 142.976562 C 227.019531 142.976562 218.371094 151.554688 218.371094 162.09375 C 218.371094 172.636719 227.019531 181.210938 237.703125 181.210938 C 248.382812 181.210938 257.03125 172.636719 257.03125 162.09375 C 257.03125 151.554688 248.382812 142.976562 237.703125 142.976562 Z M 234.140625 157.734375 C 227.964844 163.984375 220.261719 161.878906 223.894531 154.246094 C 229.273438 142.976562 244.023438 147.777344 234.140625 157.734375 Z M 234.140625 157.734375 " fill-opacity="1" fill-rule="nonzero"/></svg>