<svg xmlns="http://www.w3.org/2000/svg" xmlns:xlink="http://www.w3.org/1999/xlink" width="500" zoomAndPan="magnify" viewBox="0 0 375 374.999991" height="500" preserveAspectRatio="xMidYMid meet" version="1.0"><path fill="#6f6666" d="M 223.179688 250.285156 C 228.945312 247.542969 234.203125 241.25 237.789062 235.933594 C 240.558594 231.820312 241.394531 226.101562 243.90625 222.296875 C 247.601562 225.269531 250.667969 232.398438 250.320312 237.132812 C 258.691406 232.332031 254.082031 209.910156 254.550781 201.664062 C 259.714844 203.195312 262.242188 210.3125 266.339844 211.765625 C 269.203125 205.078125 268.210938 197.976562 269.703125 190.945312 C 271.207031 183.800781 271.652344 176.402344 271.890625 169.058594 C 274.285156 169.679688 278.277344 173.660156 279.015625 176.160156 C 282.335938 173.929688 285.050781 168.871094 288.722656 166.058594 C 292.242188 163.371094 297.242188 159.429688 301.746094 159.253906 C 299.664062 160.128906 298.035156 162.914062 297.742188 165.132812 C 313.089844 165.9375 324.824219 165.765625 336.871094 176.660156 C 328.117188 176.429688 318.925781 175.449219 311.667969 180.546875 C 313.535156 182.578125 317.460938 182.199219 319.179688 184.246094 C 311.746094 188.386719 303.589844 189.503906 301.101562 199.390625 C 300.027344 203.640625 300.738281 202.445312 304.191406 204.554688 C 306.839844 206.15625 310.347656 208.871094 311.574219 211.699219 C 306.304688 213.082031 297.902344 219.109375 296.421875 224.382812 C 301.261719 225.578125 306.960938 227.972656 310.390625 231.671875 C 306.140625 235.328125 299.636719 236.175781 295.386719 240.644531 C 292.308594 243.871094 289.984375 249.277344 289.664062 253.609375 C 294.285156 254.539062 300.617188 260.105469 301.398438 264.625 C 292.980469 266.050781 275.832031 267.019531 270.519531 274.847656 C 273.597656 278.585938 282.472656 280.429688 283.195312 285.796875 C 273.976562 288.003906 265.144531 287.035156 256.179688 291.042969 C 249.296875 294.121094 242.722656 298.171875 235.480469 300.578125 C 225.261719 303.96875 215.222656 303.632812 204.5625 303.632812 " fill-opacity="1" fill-rule="nonzero"/><path fill="#e0dfdf" d="M 327.246094 175.664062 C 321.867188 175.769531 316.382812 175.339844 311.019531 175.824219 C 305.523438 176.335938 300 178.003906 295.710938 181.621094 C 293.976562 183.089844 292.285156 184.796875 291.382812 186.90625 C 290.242188 189.597656 290.535156 192.074219 290.496094 194.871094 C 290.429688 198.476562 288.707031 201.433594 287.753906 204.851562 C 286.652344 208.871094 287.429688 212.328125 288.078125 216.335938 C 288.574219 219.429688 288.265625 222.066406 286.867188 224.917969 C 285.65625 227.355469 283.976562 229.574219 282.914062 232.074219 C 280.308594 238.234375 283.480469 245.863281 279.285156 251.523438 C 276.046875 255.910156 271.273438 258.476562 266.339844 260.578125 C 261.042969 262.835938 255.34375 264.382812 250.304688 267.261719 C 244.363281 270.636719 239.566406 275.613281 234.109375 279.691406 C 228.421875 283.914062 222.425781 286.699219 215.398438 287.773438 C 213.582031 288.042969 211.742188 288.21875 209.914062 288.3125 L 204.5625 303.632812 C 215.222656 303.632812 225.261719 303.96875 235.480469 300.578125 C 242.722656 298.171875 249.296875 294.121094 256.179688 291.042969 C 265.144531 287.035156 273.976562 288.003906 283.195312 285.796875 C 282.472656 280.429688 273.597656 278.585938 270.519531 274.847656 C 275.832031 267.019531 292.984375 266.050781 301.398438 264.625 C 300.617188 260.105469 294.285156 254.539062 289.664062 253.609375 C 289.984375 249.277344 292.308594 243.871094 295.386719 240.644531 C 299.636719 236.175781 306.140625 235.328125 310.390625 231.671875 C 306.960938 227.972656 301.261719 225.578125 296.421875 224.382812 C 297.902344 219.109375 306.304688 213.082031 311.574219 211.699219 C 310.347656 208.871094 306.839844 206.15625 304.191406 204.554688 C 300.738281 202.445312 300.027344 203.640625 301.101562 199.390625 C 303.589844 189.503906 311.746094 188.386719 319.179688 184.246094 C 317.460938 182.199219 313.535156 182.578125 311.667969 180.546875 C 318.925781 175.449219 328.117188 176.429688 336.871094 176.660156 C 336.453125 176.28125 336.023438 175.917969 335.605469 175.554688 C 332.824219 175.554688 330.027344 175.609375 327.246094 175.664062 " fill-opacity="1" fill-rule="nonzero"/><path fill="#615857" d="M 104.421875 263.050781 C 101.53125 261.410156 98.816406 259.515625 96.382812 257.269531 C 71.800781 234.699219 65.023438 268.605469 65.023438 311.902344 C 65.023438 351.917969 65.023438 364.132812 104.421875 365.746094 L 104.421875 263.050781 " fill-opacity="1" fill-rule="nonzero"/><path fill="#e0dfdf" d="M 96.035156 359.71875 C 96.035156 371.839844 87.59375 372.257812 77.203125 372.257812 C 66.796875 372.257812 58.355469 371.839844 58.355469 359.71875 C 58.355469 347.589844 66.796875 342.972656 77.203125 342.972656 C 87.59375 342.972656 96.035156 347.585938 96.035156 359.71875 " fill-opacity="1" fill-rule="nonzero"/><path fill="#615857" d="M 214.5625 263.050781 C 217.46875 261.410156 220.167969 259.515625 222.613281 257.269531 C 247.1875 234.699219 253.972656 268.605469 253.972656 311.902344 C 253.972656 351.917969 253.972656 364.132812 214.5625 365.746094 L 214.5625 263.050781 " fill-opacity="1" fill-rule="nonzero"/><path fill="#e0dfdf" d="M 222.964844 359.71875 C 222.964844 371.839844 231.390625 372.257812 241.796875 372.257812 C 252.199219 372.257812 260.628906 371.839844 260.628906 359.71875 C 260.628906 347.589844 252.199219 342.972656 241.796875 342.972656 C 231.390625 342.972656 222.964844 347.585938 222.964844 359.71875 " fill-opacity="1" fill-rule="nonzero"/><path fill="#6f6666" d="M 231.40625 274.148438 C 231.40625 350.800781 231.40625 369.820312 159.492188 369.820312 C 87.59375 369.820312 87.59375 350.800781 87.59375 274.148438 C 87.59375 197.492188 119.785156 135.351562 159.492188 135.351562 C 199.214844 135.351562 231.40625 197.492188 231.40625 274.148438 " fill-opacity="1" fill-rule="nonzero"/><path fill="#e0dfdf" d="M 192.046875 366.164062 C 196.929688 358.820312 200.652344 350.332031 200.867188 342.007812 C 201.015625 335.699219 199.28125 329.484375 195.558594 323.875 C 192.046875 318.601562 187.773438 313.664062 184.683594 308.230469 C 180.152344 300.242188 184.011719 291.511719 188.164062 283.980469 C 192.519531 276.085938 199.601562 266.601562 196.28125 257.726562 C 192.25 246.898438 176.75 241.101562 163.164062 240.683594 C 148.132812 240.210938 130.660156 244.679688 125.308594 256.703125 C 119.074219 270.679688 131.976562 283.65625 133.871094 297.308594 C 134.613281 302.742188 133.441406 307.9375 130.605469 312.9375 C 127.433594 318.546875 123.214844 323.78125 120.457031 329.550781 C 117.164062 336.449219 117.929688 343.3125 120.738281 350.222656 C 123.242188 356.382812 126.425781 362.34375 127.664062 368.757812 C 136.828125 369.484375 147.355469 369.820312 159.480469 369.820312 C 171.09375 369.820312 181.269531 369.511719 190.152344 368.839844 C 190.824219 367.953125 191.457031 367.050781 192.046875 366.164062 " fill-opacity="1" fill-rule="nonzero"/><path fill="#e0dfdf" d="M 135.769531 359.71875 C 135.769531 371.839844 127.328125 372.257812 116.921875 372.257812 C 106.53125 372.257812 98.089844 371.839844 98.089844 359.71875 C 98.089844 347.589844 106.53125 342.972656 116.921875 342.972656 C 127.328125 342.972656 135.769531 347.585938 135.769531 359.71875 " fill-opacity="1" fill-rule="nonzero"/><path fill="#e0dfdf" d="M 220.90625 359.71875 C 220.90625 371.839844 212.464844 372.257812 202.0625 372.257812 C 191.671875 372.257812 183.230469 371.839844 183.230469 359.71875 C 183.230469 347.589844 191.671875 342.972656 202.0625 342.972656 C 212.464844 342.972656 220.90625 347.585938 220.90625 359.71875 " fill-opacity="1" fill-rule="nonzero"/><path stroke-linecap="round" transform="matrix(0.134417, 0, 0, -0.134505, -93.198388, 473.861153)" fill="none" stroke-linejoin="round" d="M 3199.509897 2209.590368 C 3109.886946 2290.587578 3022.588845 2289.309744 2908.409672 2295.292328 C 2910.589218 2311.787995 2922.707496 2332.494703 2938.196807 2339.000037 C 2904.689912 2337.693162 2867.492319 2308.39012 2841.308701 2288.409453 C 2813.991719 2267.499452 2793.794589 2229.890494 2769.093062 2213.307702 C 2763.600605 2231.894369 2733.900652 2261.487827 2716.086492 2266.105452 C 2714.313794 2211.507119 2711.000884 2156.502201 2699.812545 2103.414034 C 2688.711389 2051.109992 2696.092786 1998.312241 2674.791352 1948.592907 C 2644.306762 1959.396407 2625.504541 2012.310325 2587.086403 2023.694658 C 2583.599128 1962.387699 2617.890659 1795.68853 2555.613752 1759.996322 C 2558.200147 1795.194822 2535.387561 1848.195864 2507.896215 1870.296573 C 2489.210236 1842.009989 2482.991264 1799.492989 2462.387285 1768.912113 C 2446.491126 1745.388363 2426.206813 1719.396071 2403.394227 1697.905238 C 2405.108804 1682.687404 2406.590895 1667.498612 2407.898623 1652.193654 C 2519.200796 1706.791988 2565.697787 1561.293236 2578.687884 1349.69565 C 2585.488068 1352.890234 2592.288253 1356.113859 2599.204681 1359.192275 C 2665.898802 1388.989026 2731.604863 1381.786692 2800.187925 1398.195234 C 2794.81171 1438.098485 2728.785983 1451.806151 2705.886215 1479.599027 C 2745.408657 1537.798527 2873.013837 1545.000861 2935.610411 1555.601069 C 2929.798288 1589.202278 2882.691023 1630.586653 2848.312311 1637.49857 C 2850.695281 1669.705779 2867.98635 1709.899446 2890.886118 1733.887863 C 2922.504072 1767.11153 2970.890003 1773.413572 3002.507957 1800.596572 C 2976.992734 1828.099031 2934.59329 1845.901573 2898.587182 1854.788323 C 2909.601157 1893.994573 2972.110549 1938.805865 3011.313325 1949.086615 C 3002.188291 1970.112782 2976.091854 1990.296741 2956.388754 2002.203824 C 2930.699167 2017.886325 2925.410134 2008.999575 2933.401804 2040.596908 C 2951.913419 2114.101367 3012.591992 2122.407284 3067.894351 2153.191451 C 3055.107679 2168.409285 3025.901756 2165.592243 3012.01078 2180.69391 C 3066.005411 2218.593285 3134.414109 2211.303827 3199.509897 2209.590368 Z M 3199.509897 2209.590368 " stroke="#2b1c15" stroke-width="40" stroke-opacity="1" stroke-miterlimit="10"/><path stroke-linecap="round" transform="matrix(0.134417, 0, 0, -0.134505, -93.198388, 473.861153)" fill="none" stroke-linejoin="round" d="M 1428.904476 891.766645 C 1345.006467 994.835521 1345.006467 1177.507607 1345.006467 1484.797485 C 1345.006467 1541.806277 1347.389438 1597.711486 1352.010077 1652.193654 C 1216.500408 1718.611946 1177.094208 1488.689068 1177.094208 1204.109774 C 1177.094208 1097.497814 1177.094208 1017.400896 1190.491154 958.039729 C 1212.693467 968.407604 1239.10957 973.054271 1267.70522 973.054271 C 1345.006467 973.054271 1407.806466 938.843187 1407.806466 848.639769 C 1407.806466 832.753978 1405.801283 819.569061 1402.110584 808.591311 C 1410.886892 807.661977 1420.099108 806.790727 1429.60193 806.093727 C 1425.388141 817.536144 1423.092352 831.534228 1423.092352 848.639769 C 1423.092352 864.757895 1425.213777 879.075436 1428.904476 891.766645 Z M 1428.904476 891.766645 " stroke="#2b1c15" stroke-width="40" stroke-opacity="1" stroke-miterlimit="10"/><path stroke-linecap="round" transform="matrix(0.134417, 0, 0, -0.134505, -93.198388, 473.861153)" fill="none" stroke-linejoin="round" d="M 1267.70522 973.054271 C 1239.10957 973.054271 1212.693467 968.407604 1190.491154 958.039729 C 1152.596106 940.237187 1127.487731 905.61952 1127.487731 848.639769 C 1127.487731 758.494435 1190.287729 755.386977 1267.70522 755.386977 C 1331.406097 755.386977 1385.110122 757.53606 1402.110584 808.591311 C 1405.801283 819.569061 1407.806466 832.753978 1407.806466 848.639769 C 1407.806466 938.843187 1345.006467 973.054271 1267.70522 973.054271 Z M 1267.70522 973.054271 " stroke="#2b1c15" stroke-width="40" stroke-opacity="1" stroke-miterlimit="10"/><path stroke-linecap="round" transform="matrix(0.134417, 0, 0, -0.134505, -93.198388, 473.861153)" fill="none" stroke-linejoin="round" d="M 2407.898623 1652.193654 C 2412.490201 1597.711486 2414.902232 1541.806277 2414.902232 1484.797485 C 2414.902232 1177.507607 2414.78599 994.835521 2331.004224 891.766645 C 2334.694923 879.075436 2336.787287 864.757895 2336.787287 848.639769 C 2336.787287 831.534228 2334.491498 817.536144 2330.190527 806.093727 C 2339.809592 806.790727 2348.905566 807.661977 2357.710933 808.591311 C 2354.107417 819.569061 2352.102234 832.753978 2352.102234 848.639769 C 2352.102234 938.843187 2414.78599 973.054271 2492.20348 973.054271 C 2520.711948 973.054271 2547.186172 968.407604 2569.301303 958.039729 C 2582.814492 1017.400896 2582.814492 1097.497814 2582.814492 1204.109774 C 2582.814492 1254.787482 2581.593945 1303.809816 2578.687884 1349.69565 C 2565.697787 1561.293236 2519.200796 1706.791988 2407.898623 1652.193654 Z M 2407.898623 1652.193654 " stroke="#2b1c15" stroke-width="40" stroke-opacity="1" stroke-miterlimit="10"/><path stroke-linecap="round" transform="matrix(0.134417, 0, 0, -0.134505, -93.198388, 473.861153)" fill="none" stroke-linejoin="round" d="M 2352.102234 848.639769 C 2352.102234 832.753978 2354.107417 819.569061 2357.710933 808.591311 C 2374.798578 757.53606 2428.502602 755.386977 2492.20348 755.386977 C 2569.59191 755.386977 2632.304726 758.494435 2632.304726 848.639769 C 2632.304726 905.61952 2607.312594 940.237187 2569.301303 958.039729 C 2547.186172 968.407604 2520.711948 973.054271 2492.20348 973.054271 C 2414.78599 973.054271 2352.102234 938.843187 2352.102234 848.639769 Z M 2352.102234 848.639769 " stroke="#2b1c15" stroke-width="40" stroke-opacity="1" stroke-miterlimit="10"/><path stroke-linecap="round" transform="matrix(0.134417, 0, 0, -0.134505, -93.198388, 473.861153)" fill="none" stroke-linejoin="round" d="M 2153.589142 1606.888653 C 2178.290669 1540.905986 2125.603766 1470.392818 2093.201175 1411.699609 C 2062.309737 1355.707275 2033.597845 1290.79915 2067.308163 1231.408941 C 2090.295113 1191.011982 2122.087431 1154.303315 2148.212928 1115.097064 C 2175.907698 1073.39323 2188.810613 1027.187938 2187.70631 980.314688 C 2187.590067 977.817104 2187.386643 975.348563 2187.299461 972.850979 C 2190.408947 972.967146 2193.489373 973.054271 2196.598859 973.054271 C 2260.212555 973.054271 2313.800337 949.937104 2331.004224 891.766645 C 2414.78599 994.835521 2414.902232 1177.507607 2414.902232 1484.797485 C 2414.902232 1541.806277 2412.490201 1597.711486 2407.898623 1652.193654 C 2406.590895 1667.498612 2405.108804 1682.687404 2403.394227 1697.905238 C 2352.596264 2165.592243 2137.489559 2516.705997 1879.896229 2516.705997 C 1613.991561 2516.705997 1393.508641 2142.504118 1352.010077 1652.193654 C 1347.389438 1597.711486 1345.006467 1541.806277 1345.006467 1484.797485 C 1345.006467 1177.507607 1345.006467 994.835521 1428.904476 891.766645 C 1446.108362 949.937104 1499.696145 973.054271 1563.193598 973.054271 C 1567.49457 973.054271 1571.795541 972.938104 1576.009331 972.705771 C 1570.400632 1006.103688 1573.510118 1039.385438 1589.493459 1072.899522 C 1610.010256 1115.794064 1641.395725 1154.709898 1664.992948 1196.413732 C 1686.090958 1233.587066 1694.809143 1272.212483 1689.287626 1312.609441 C 1675.193225 1414.110068 1579.205999 1510.586485 1625.586748 1614.49757 " stroke="#2b1c15" stroke-width="40" stroke-opacity="1" stroke-miterlimit="10"/><path stroke-linecap="round" transform="matrix(0.134417, 0, 0, -0.134505, -93.198388, 473.861153)" fill="none" stroke-linejoin="round" d="M 1625.586748 1614.49757 C 1579.205999 1510.586485 1675.193225 1414.110068 1689.287626 1312.609441 C 1694.809143 1272.212483 1686.090958 1233.587066 1664.992948 1196.413732 C 1641.395725 1154.709898 1610.010256 1115.794064 1589.493459 1072.899522 C 1573.510118 1039.41448 1570.400632 1006.103688 1576.009331 972.705771 C 1647.411273 969.075562 1703.411087 933.84802 1703.411087 848.639769 C 1703.411087 814.341561 1694.286052 792.647435 1678.796742 778.939769 C 1738.196648 775.280519 1804.89077 773.508977 1879.809047 773.508977 C 1880.099653 773.508977 1880.303077 773.56706 1880.506502 773.56706 C 1955.192294 773.56706 2021.799233 775.251477 2081.199139 778.910727 C 2065.593587 792.618394 2056.497613 814.312519 2056.497613 848.639769 C 2056.497613 935.154895 2114.299185 970.121063 2187.299461 972.850979 C 2187.386643 975.348563 2187.590067 977.817104 2187.70631 980.314688 C 2188.810613 1027.187938 2175.907698 1073.39323 2148.212928 1115.097064 C 2122.087431 1154.303315 2090.295113 1191.011982 2067.308163 1231.408941 C 2033.597845 1290.79915 2062.309737 1355.707275 2093.201175 1411.699609 C 2125.603766 1470.392818 2178.290669 1540.905986 2153.589142 1606.888653 " stroke="#2b1c15" stroke-width="40" stroke-opacity="1" stroke-miterlimit="10"/><path stroke-linecap="round" transform="matrix(0.134417, 0, 0, -0.134505, -93.198388, 473.861153)" fill="none" stroke-linejoin="round" d="M 1703.411087 848.639769 C 1703.411087 933.84802 1647.411273 969.075562 1576.009331 972.705771 C 1571.795541 972.938104 1567.49457 973.054271 1563.193598 973.054271 C 1499.696145 973.054271 1446.108362 949.937104 1428.904476 891.766645 C 1425.213777 879.075436 1423.092352 864.757895 1423.092352 848.639769 C 1423.092352 831.534228 1425.388141 817.536144 1429.60193 806.093727 C 1447.503272 757.419893 1500.597024 755.386977 1563.193598 755.386977 C 1611.201741 755.386977 1653.514003 756.606727 1678.796742 778.939769 C 1694.286052 792.647435 1703.411087 814.341561 1703.411087 848.639769 Z M 1703.411087 848.639769 " stroke="#2b1c15" stroke-width="40" stroke-opacity="1" stroke-miterlimit="10"/><path stroke-linecap="round" transform="matrix(0.134417, 0, 0, -0.134505, -93.198388, 473.861153)" fill="none" stroke-linejoin="round" d="M 2331.004224 891.766645 C 2313.800337 949.937104 2260.212555 973.054271 2196.598859 973.054271 C 2193.489373 973.054271 2190.408947 972.967146 2187.299461 972.850979 C 2114.299185 970.121063 2056.497613 935.154895 2056.497613 848.639769 C 2056.497613 814.312519 2065.593587 792.618394 2081.199139 778.910727 C 2106.394696 756.606727 2148.706958 755.386977 2196.598859 755.386977 C 2259.311676 755.386977 2312.289185 757.419893 2330.190527 806.093727 C 2334.491498 817.536144 2336.787287 831.534228 2336.787287 848.639769 C 2336.787287 864.757895 2334.694923 879.075436 2331.004224 891.766645 Z M 2331.004224 891.766645 " stroke="#2b1c15" stroke-width="40" stroke-opacity="1" stroke-miterlimit="10"/><path fill="#6f6666" d="M 200.328125 55.683594 C 200.328125 55.683594 206.121094 41.628906 220.503906 29.285156 C 236.058594 15.9375 232.925781 6.753906 243.800781 3.648438 C 254.660156 0.542969 284.164062 69.671875 239.914062 102.292969 C 195.664062 134.921875 200.328125 55.683594 200.328125 55.683594 " fill-opacity="1" fill-rule="nonzero"/><path fill="#6f6666" d="M 118.671875 55.683594 C 118.671875 55.683594 112.863281 41.628906 98.492188 29.285156 C 82.941406 15.9375 86.058594 6.753906 75.199219 3.648438 C 64.339844 0.542969 34.835938 69.671875 79.085938 102.292969 C 123.320312 134.921875 118.671875 55.683594 118.671875 55.683594 " fill-opacity="1" fill-rule="nonzero"/><path fill="#f79477" d="M 239.914062 102.292969 C 270.050781 80.070312 265.976562 40.917969 256.878906 19.1875 C 253.558594 13.679688 250.117188 10.628906 247.628906 11.332031 C 236.769531 14.441406 239.902344 23.621094 224.347656 36.960938 C 209.964844 49.308594 204.171875 63.378906 204.171875 63.378906 C 204.171875 63.378906 202.789062 86.863281 208.675781 103.003906 C 214.429688 111.304688 224.011719 114.019531 239.914062 102.292969 " fill-opacity="1" fill-rule="nonzero"/><path fill="#f79477" d="M 114.824219 63.378906 C 114.824219 63.378906 109.03125 49.308594 94.648438 36.960938 C 79.097656 23.621094 82.230469 14.441406 71.367188 11.332031 C 68.882812 10.628906 65.441406 13.679688 62.121094 19.1875 C 53.019531 40.917969 48.949219 80.070312 79.085938 102.292969 C 94.984375 114.019531 104.570312 111.304688 110.324219 103.003906 C 116.210938 86.863281 114.824219 63.378906 114.824219 63.378906 " fill-opacity="1" fill-rule="nonzero"/><path fill="#6f6666" d="M 236.730469 152.839844 L 236.730469 123.355469 L 251.234375 123.355469 C 250.15625 120.921875 249.042969 118.351562 247.886719 115.660156 C 226.472656 65.464844 209.964844 30.1875 159.492188 30.1875 C 109.03125 30.1875 92.527344 65.464844 71.101562 115.660156 C 69.945312 118.351562 68.839844 120.921875 67.753906 123.355469 L 77.902344 123.355469 L 77.902344 152.839844 L 236.730469 152.839844 " fill-opacity="1" fill-rule="nonzero"/><path fill="#e0dfdf" d="M 270.710938 142.925781 C 265.519531 127.808594 248.878906 116.425781 247.953125 115.808594 C 247.953125 115.796875 247.953125 115.78125 247.9375 115.78125 L 247.914062 115.78125 C 238.664062 117.246094 229.390625 121.335938 222.320312 130.390625 C 200.867188 157.800781 118.132812 157.800781 96.679688 130.390625 C 89.609375 121.335938 80.335938 117.246094 71.085938 115.78125 L 71.046875 115.78125 C 71.046875 115.78125 71.046875 115.796875 71.03125 115.808594 C 70.117188 116.425781 53.476562 127.808594 48.277344 142.925781 C 48.277344 142.925781 58.0625 139.964844 62.347656 146.960938 C 62.347656 146.960938 52.953125 154.652344 59.675781 177.921875 C 59.675781 177.921875 60.992188 169.234375 72.511719 170.527344 C 72.511719 170.527344 64.152344 185.820312 70.480469 198.703125 C 70.480469 198.703125 86.371094 180.855469 96.761719 188.535156 L 96.652344 188.226562 C 105.417969 195.609375 112.660156 199.835938 112.660156 199.835938 C 126.65625 234.160156 159.492188 217.910156 159.492188 217.898438 C 159.507812 217.910156 192.34375 234.160156 206.335938 199.835938 C 206.335938 199.835938 213.570312 195.609375 222.332031 188.226562 L 222.226562 188.535156 C 232.628906 180.855469 248.515625 198.703125 248.515625 198.703125 C 254.835938 185.820312 246.488281 170.527344 246.488281 170.527344 C 257.992188 169.234375 259.3125 177.921875 259.3125 177.921875 C 266.046875 154.652344 256.648438 146.960938 256.648438 146.960938 C 260.9375 139.964844 270.710938 142.925781 270.710938 142.925781 " fill-opacity="1" fill-rule="nonzero"/><path fill="#e0dfdf" d="M 136.777344 90.496094 C 95.683594 77.378906 85.523438 129.796875 85.523438 129.796875 L 132.90625 157.839844 C 141.546875 123.085938 177.867188 103.597656 136.777344 90.496094 " fill-opacity="1" fill-rule="nonzero"/><path fill="#e0dfdf" d="M 182.210938 90.496094 C 223.300781 77.378906 233.476562 129.796875 233.476562 129.796875 L 186.082031 157.839844 C 177.449219 123.085938 141.117188 103.597656 182.210938 90.496094 " fill-opacity="1" fill-rule="nonzero"/><path fill="#2b1c15" d="M 135.5 115.566406 C 135.5 122.332031 130.027344 127.820312 123.265625 127.820312 C 116.507812 127.820312 111.023438 122.332031 111.023438 115.566406 C 111.023438 108.800781 116.507812 103.3125 123.265625 103.3125 C 130.027344 103.3125 135.5 108.800781 135.5 115.566406 " fill-opacity="1" fill-rule="nonzero"/><path fill="#2b1c15" d="M 207.964844 115.566406 C 207.964844 122.332031 202.492188 127.820312 195.730469 127.820312 C 188.96875 127.820312 183.484375 122.332031 183.484375 115.566406 C 183.484375 108.800781 188.96875 103.3125 195.730469 103.3125 C 202.492188 103.3125 207.964844 108.800781 207.964844 115.566406 " fill-opacity="1" fill-rule="nonzero"/><path fill="#2b1c15" d="M 144.332031 145.15625 C 134.746094 145.15625 132.460938 150.699219 139.222656 157.476562 L 147.179688 165.441406 C 153.953125 172.21875 165.042969 172.21875 171.820312 165.441406 L 179.761719 157.476562 C 186.539062 150.699219 184.253906 145.15625 174.667969 145.15625 L 144.332031 145.15625 " fill-opacity="1" fill-rule="nonzero"/><path stroke-linecap="round" transform="matrix(0.134417, 0, 0, -0.134505, -93.198388, 473.861153)" fill="none" stroke-linejoin="round" d="M 2437.104546 2886.493543 C 2455.005887 2849.988168 2472.703804 2811.798375 2490.401722 2771.808 C 2801.786259 3017.994211 2586.912039 3518.701592 2507.111578 3495.903883 C 2426.206813 3472.786716 2449.51343 3404.509757 2333.794044 3305.303423 C 2285.408112 3263.802881 2250.09946 3219.688588 2225.891964 3183.793088 C 2259.48604 3155.709796 2289.796266 3122.805587 2318.014127 3085.893629 " stroke="#2b1c15" stroke-width="40" stroke-opacity="1" stroke-miterlimit="10"/><path stroke-linecap="round" transform="matrix(0.134417, 0, 0, -0.134505, -93.198388, 473.861153)" fill="none" stroke-linejoin="round" d="M 1441.807391 3085.893629 C 1469.996191 3122.805587 1500.393599 3155.709796 1533.900494 3183.793088 C 1509.80924 3219.688588 1474.500587 3263.802881 1426.085596 3305.303423 C 1310.39527 3404.509757 1333.585644 3472.786716 1252.797122 3495.903883 C 1172.996661 3518.701592 958.122441 3017.994211 1269.506978 2771.808 C 1287.204895 2811.798375 1304.78657 2849.988168 1322.804154 2886.493543 " stroke="#2b1c15" stroke-width="40" stroke-opacity="1" stroke-miterlimit="10"/><path stroke-linecap="round" transform="matrix(0.134417, 0, 0, -0.134505, -93.198388, 473.861153)" fill="none" stroke-linejoin="round" d="M 1315.509939 2871.798459 C 1282.206469 2802.911625 1252.012485 2732.398458 1221.789441 2662.001457 C 1295.109384 2656.396415 1367.993417 2610.597706 1412.601468 2553.588914 " stroke="#2b1c15" stroke-width="40" stroke-opacity="1" stroke-miterlimit="10"/><path stroke-linecap="round" transform="matrix(0.134417, 0, 0, -0.134505, -93.198388, 473.861153)" fill="none" stroke-linejoin="round" d="M 2307.988214 3098.788129 C 2243.386457 3179.698213 2160.50557 3243.009047 2060.885766 3273.589922 C 1950.31011 3307.597714 1822.70493 3308.410881 1711.402757 3277.191089 C 1606.493921 3247.888047 1519.312063 3183.212255 1451.804244 3098.788129 " stroke="#2b1c15" stroke-width="40" stroke-opacity="1" stroke-miterlimit="10"/><path stroke-linecap="round" transform="matrix(0.134417, 0, 0, -0.134505, -93.198388, 473.861153)" fill="none" stroke-linejoin="round" d="M 2347.307232 2553.588914 C 2391.886222 2610.597706 2464.799316 2656.396415 2538.003016 2662.001457 C 2507.896215 2732.398458 2477.702231 2802.911625 2444.311579 2871.798459 " stroke="#2b1c15" stroke-width="40" stroke-opacity="1" stroke-miterlimit="10"/><path stroke-linecap="round" transform="matrix(0.134417, 0, 0, -0.134505, -93.198388, 473.861153)" fill="none" stroke-linejoin="round" d="M 1412.601468 2553.588914 C 1360.001747 2620.907498 1291.011836 2651.314124 1222.19629 2662.204749 L 1221.905683 2662.204749 C 1221.905683 2662.204749 1221.905683 2662.088582 1221.789441 2662.001457 C 1214.989256 2657.412874 1091.191017 2572.814498 1052.511333 2460.394205 C 1052.511333 2460.394205 1125.308184 2482.407788 1157.187684 2430.394163 C 1157.187684 2430.394163 1087.296894 2373.21112 1137.31022 2200.20991 C 1137.31022 2200.20991 1147.103649 2264.798577 1232.803416 2255.185786 C 1232.803416 2255.185786 1170.61369 2141.487659 1217.691894 2045.708242 C 1217.691894 2045.708242 1335.910493 2178.399618 1413.211741 2121.303701 L 1412.398044 2123.597992 C 1477.610074 2068.709242 1531.488462 2037.286158 1531.488462 2037.286158 C 1635.612662 1782.09703 1879.896229 1902.910365 1879.896229 1902.99749 C 1880.012471 1902.910365 2124.296038 1782.09703 2228.391177 2037.286158 C 2228.391177 2037.286158 2282.211444 2068.709242 2347.394413 2123.597992 L 2346.609777 2121.303701 C 2423.998206 2178.399618 2542.187746 2045.708242 2542.187746 2045.708242 C 2589.207828 2141.487659 2527.105284 2255.185786 2527.105284 2255.185786 C 2612.688808 2264.798577 2622.511298 2200.20991 2622.511298 2200.20991 C 2672.611806 2373.21112 2602.691955 2430.394163 2602.691955 2430.394163 C 2634.600515 2482.407788 2707.310185 2460.394205 2707.310185 2460.394205 C 2668.688622 2572.814498 2544.890383 2657.412874 2538.003016 2662.001457 C 2538.003016 2662.088582 2538.003016 2662.204749 2537.886774 2662.204749 L 2537.71241 2662.204749 C 2468.896863 2651.314124 2399.906953 2620.907498 2347.307232 2553.588914 " stroke="#2b1c15" stroke-width="40" stroke-opacity="1" stroke-miterlimit="10"/><path stroke-linecap="round" transform="matrix(0.134417, 0, 0, -0.134505, -93.198388, 473.861153)" fill="none" stroke-linejoin="round" d="M 1879.896229 2154.004618 C 1879.896229 2078.7867 1819.014231 2017.886325 1743.805348 2017.886325 C 1668.596465 2017.886325 1607.714467 2078.7867 1607.714467 2154.004618 " stroke="#2b1c15" stroke-width="40" stroke-opacity="1" stroke-miterlimit="10"/><path stroke-linecap="round" transform="matrix(0.134417, 0, 0, -0.134505, -93.198388, 473.861153)" fill="none" stroke-linejoin="round" d="M 2152.107051 2154.004618 C 2152.107051 2078.7867 2091.195993 2017.886325 2016.103352 2017.886325 C 1940.894469 2017.886325 1879.896229 2078.7867 1879.896229 2154.004618 L 1879.896229 2299.997078 " stroke="#2b1c15" stroke-width="40" stroke-opacity="1" stroke-miterlimit="10"/></svg>